# xmcd CD database file
#
# Track frame offsets:
#	150
#	16880
#	26693
#	42837
#	59646
#	78334
#	92725
#	106726
#	122501
#	135471
#	145735
#	164591
#	176957
#
# Disc length: 2559 seconds
#
# Revision: 0
# Processed by: cddbd v1.5.2PL0 Copyright (c) Steve Scherf et al.
# Submitted via: cdripper 1.0.8
#
DISCID=a909fd0d
DTITLE=Sérgio Reis - 2009 - 50 Anos Cantando o Brasil - CD 4 - CD 4
DYEAR=2009
DGENRE=Country
TTITLE0=Tocando em Frente
TTITLE1=Adeus, Mariana
TTITLE2=Filho Pródigo - Ao Vivo
TTITLE3=Comitiva Esperança - Sérgio Reis and Filhos
TTITLE4=O Menino da Gaita
TTITLE5=Casamento é uma gaiola
TTITLE6=Rio de Lágrimas (rio de Piracicaba)
TTITLE7=Guantanamera
TTITLE8=João de Barro
TTITLE9=Uirapuru
TTITLE10=Mágoa de Boiadeiro
TTITLE11=Vaqueiro Solitário (Cowboy's Delight)
TTITLE12=Galopeira (Galopera)
EXTD=YEAR: 2009
EXTT0=
EXTT1=
EXTT2=
EXTT3=
EXTT4=
EXTT5=
EXTT6=
EXTT7=
EXTT8=
EXTT9=
EXTT10=
EXTT11=
EXTT12=
PLAYORDER=
